#!OML:ASF X:\für Bonn\!DataBase\2005_08_10_Bjorn_Final\c3d\bjorn.ASF
:FULLY-SPECIFIED
:DEGREES
110
root 3.43658 8.3873 0.994721 479.4 77.4211 -589.81
lowerback 45.3085 -5.12349 4.96999
upperback 22.5606 0.637031 1.31834
thorax 4.49287 2.67025 -1.11642
lowerneck -7.20972 -10.8688 3.31193
upperneck 6.82369 -15.0649 2.86946
head 3.44257 -7.24799 -0.391102
rclavicle 3.81667e-014 1.59028e-014
rhumerus 14.1538 -18.9664 -74.3822
rradius 22.0947
rwrist 27.0055
rhand -49.286 37.5275
rfingers 7.12502
rthumb -21.9036 8.7474
lclavicle 3.81667e-014 1.59028e-014
lhumerus 8.9743 -32.699 69.6767
lradius 48.0578
lwrist -16.1549
lhand -29.8048 -14.4002
lfingers 7.12502
lthumb -3.12893 15.5565
rfemur 3.34222 -71.5795 -109.19
rtibia 152.001
rfoot -73.4169 75.394
rtoes -19.7861
lfemur -86.9865 25.8862 -32.5722
ltibia 146.214
lfoot -28.6449 -14.2007
ltoes -22.5694
111
root 3.45354 8.32794 0.98656 479.283 77.5412 -589.69
lowerback 45.3683 -5.18748 5.11228
upperback 22.5669 0.628198 1.36631
thorax 4.48901 2.67963 -1.13164
lowerneck -6.97811 -10.9106 3.24455
upperneck 6.7707 -15.1038 2.95148
head 3.39313 -7.26957 -0.339811
rclavicle 3.81667e-014 5.08889e-014
rhumerus 13.8131 -19.0101 -74.3095
rradius 22.2592
rwrist 27.1964
rhand -49.6134 38.0626
rfingers 7.12502
rthumb -22.218 9.3196
lclavicle 3.81667e-014 5.08889e-014
lhumerus 8.4845 -32.8415 70.2144
lradius 47.5142
lwrist -16.8272
lhand -29.8231 -14.458
lfingers 7.12502
lthumb -3.14662 15.4985
rfemur 5.2149 -71.243 -111.952
rtibia 152.367
rfoot -75.7462 75.7682
rtoes -19.7289
lfemur -87.1496 26.8418 -32.5182
ltibia 146.72
lfoot -28.9067 -14.1863
ltoes -23.4136
112
root 3.47115 8.2722 0.978607 479.199 77.672 -589.546
lowerback 45.4234 -5.25144 5.25184
upperback 22.5754 0.617881 1.40997
thorax 4.48878 2.68833 -1.14943
lowerneck -6.76321 -10.9427 3.20765
upperneck 6.71349 -15.1324 3.01468
head 3.34138 -7.28619 -0.299304
rclavicle 9.54166e-015 -3.97569e-014
rhumerus 13.472 -18.9557 -74.2181
rradius 22.4266
rwrist 27.3302
rhand -49.9532 38.4083
rfingers 7.12502
rthumb -22.5442 9.70453
lclavicle 9.54166e-015 -3.97569e-014
lhumerus 8.01875 -32.9687 70.7052
lradius 46.9946
lwrist -17.3787
lhand -29.8425 -14.6207
lfingers 7.12502
lthumb -3.16535 15.3355
rfemur 6.63611 -70.9288 -114.187
rtibia 152.694
rfoot -77.7755 76.274
rtoes -19.3721
lfemur -87.2971 27.7528 -32.442
ltibia 147.199
lfoot -29.1801 -14.1193
ltoes -24.3798
113
root 3.48729 8.22013 0.97046 479.013 77.7764 -589.488
lowerback 45.5226 -5.31544 5.36335
upperback 22.5741 0.602097 1.44904
thorax 4.46635 2.69188 -1.15695
lowerneck -6.56858 -10.9781 3.11706
upperneck 6.67607 -15.164 3.09781
head 3.30685 -7.30378 -0.247319
rclavicle -9.54166e-015 -1.43125e-014
rhumerus 13.1197 -18.8837 -74.0978
rradius 22.6057
rwrist 27.426
rhand -50.213 38.7525
rfingers 7.12502
rthumb -22.7935 10.0791
lclavicle -9.54166e-015 -1.43125e-014
lhumerus 7.55415 -33.0262 71.2306
lradius 46.4744
lwrist -17.9641
lhand -29.8832 -14.8563
lfingers 7.12502
lthumb -3.20463 15.0994
rfemur 7.58635 -70.6262 -115.959
rtibia 153
rfoot -79.5587 76.8155
rtoes -19.0667
lfemur -87.3642 28.6349 -32.3602
ltibia 147.643
lfoot -29.3725 -14.1847
ltoes -24.9325
114
root 3.50436 8.16986 0.962405 478.885 77.893 -589.399
lowerback 45.5886 -5.38639 5.5104
upperback 22.5721 0.585608 1.47037
thorax 4.45167 2.69944 -1.20069
lowerneck -6.43455 -11.0211 3.07146
upperneck 6.69125 -15.2115 3.13651
head 3.29434 -7.32715 -0.222436
rclavicle -1.17681e-013 -4.77083e-014
rhumerus 12.7865 -18.8462 -74.016
rradius 22.7661
rwrist 27.5209
rhand -50.4864 39.0681
rfingers 7.12502
rthumb -23.0559 10.4273
lclavicle -1.17681e-013 -4.77083e-014
lhumerus 7.07373 -33.1013 71.7101
lradius 46.0468
lwrist -18.4881
lhand -29.8714 -15.0575
lfingers 7.12502
lthumb -3.19328 14.8983
rfemur 8.75335 -70.2715 -117.927
rtibia 153.279
rfoot -81.9425 77.3657
rtoes -18.5516
lfemur -87.4526 29.4893 -32.2508
ltibia 148.065
lfoot -29.5197 -14.3541
ltoes -25.1413
115
root 3.51996 8.12344 0.954293 478.675 78.001 -589.381
lowerback 45.7053 -5.44758 5.63532
upperback 22.5465 0.575462 1.4971
thorax 4.39799 2.70524 -1.2311
lowerneck -6.30155 -11.0671 2.98149
upperneck 6.71815 -15.2596 3.17789
head 3.29019 -7.35133 -0.190861
rclavicle -1.90833e-014 3.65764e-014
rhumerus 12.4481 -18.8295 -73.9205
rradius 22.8848
rwrist 27.6231
rhand -50.7191 39.4567
rfingers 7.12502
rthumb -23.2791 10.8439
lclavicle -1.90833e-014 3.65764e-014
lhumerus 6.61185 -33.1503 72.2035
lradius 45.5855
lwrist -18.9835
lhand -29.9547 -15.3291
lfingers 7.12502
lthumb -3.27369 14.6255
rfemur 9.56184 -69.9427 -119.484
rtibia 153.536
rfoot -84.1568 77.8171
rtoes -18.1885
lfemur -87.4967 30.3751 -32.14
ltibia 148.465
lfoot -29.689 -14.5319
ltoes -25.2995
116
root 3.53587 8.07929 0.946085 478.547 78.1046 -589.289
lowerback 45.8098 -5.5217 5.76641
upperback 22.5189 0.550628 1.5172
thorax 4.34436 2.70443 -1.26679
lowerneck -6.24092 -11.1031 2.93459
upperneck 6.78801 -15.2984 3.14725
head 3.30433 -7.37023 -0.193693
rclavicle -3.18055e-014 -6.36111e-015
rhumerus 12.0938 -18.6536 -73.7769
rradius 23.0244
rwrist 27.5956
rhand -50.9658 39.6873
rfingers 7.12502
rthumb -23.5158 11.1047
lclavicle -3.18055e-014 -6.36111e-015
lhumerus 6.13642 -33.1553 72.7033
lradius 45.1322
lwrist -19.4339
lhand -30.1061 -15.5396
lfingers 7.12502
lthumb -3.41989 14.4127
rfemur 10.3095 -69.6096 -120.952
rtibia 153.779
rfoot -86.4452 78.2279
rtoes -17.8407
lfemur -87.5223 31.2725 -32.0184
ltibia 148.842
lfoot -29.84 -14.7267
ltoes -25.4543
